{"title":"Men of Honor - [Drama] - (2000) - DVDRip x264 720p - [=Faith=]","uid":9860453,"size":1132692813,"categoryP":"video","categoryS":"hd___movies","magnet":"?xt=urn:btih:45c7f7a46ef9c9053b9b8ce1b448f38970ab6a64&amp;dn=Men+of+Honor+-+%5BDrama%5D+-+%282000%29+-+DVDRip+x264+720p+-+%5B%3DFaith%3D%5D+&amp;tr=udp%3A%2F%2Ftracker.openbittorrent.com%3A80&amp;tr=udp%3A%2F%2Fopen.demonii.com%3A1337&amp;tr=udp%3A%2F%2Ftracker.coppersurfer.tk%3A6969&amp;tr=udp%3A%2F%2Fexodus.desync.com%3A6969","seeders":1,"leechers":0,"uploader":"Faithwyn","files":3,"time":1396286221,"description":" The story of Carl Brashear, the first African American, then also the first amputee, US Navy Diver and the man who trained him.\n\n\n\n\nMovie:\nTitle: Men of Honor\nGenre: Drama\nRating: R\nYear: 2000\nStars: Cuba Gooding Jr., Robert De Niro, Charlize Theron\nDirector: George Tillman Jr.\nWriters: Scott Marshall Smith\nLength: 2:08\nScreen: Letterbox\nIMDB Rating: 7.1\n\n\n\nGeneral:\nComplete name : Men of Honor.mp4\nFormat : MPEG-4\nFormat profile : Base Media / Version 2\nCodec ID : mp42\nFile size : 1.05 GiB\nDuration : 2h 8mn\nOverall bit rate mode : Variable\nOverall bit rate : 1 173 Kbps\nEncoded date : UTC 2014-03-31 12:32:25\nTagged date : UTC 2014-03-31 13:08:15\nWriting application : HandBrake 0.9.9 2013052900\n\nVideo:\nID : 1\nFormat : AVC\nFormat/Info : Advanced Video Codec\nFormat profile : &lt;a class=&quot;__cf_email__&quot; href=&quot;/cdn-cgi/l/email-protection&quot; data-cfemail=&quot;de93bfb7b09e92eaf0ee&quot;&gt;[email&amp;#160;protected]&lt;/a&gt;&lt;script cf-hash='f9e31' type=&quot;text/javascript&quot;&gt;\n/* &lt;![CDATA[ */!function(){try{var t=&quot;currentScript&quot;in document?document.currentScript:function(){for(var t=document.getElementsByTagName(&quot;script&quot;),e=t.length;e--;)if(t[e].getAttribute(&quot;cf-hash&quot;))return t[e]}();if(t&amp;&amp;t.previousSibling){var e,r,n,i,c=t.previousSibling,a=c.getAttribute(&quot;data-cfemail&quot;);if(a){for(e=&quot;&quot;,r=parseInt(a.substr(0,2),16),n=2;a.length-n;n+=2)i=parseInt(a.substr(n,2),16)^r,e+=String.fromCharCode(i);e=document.createTextNode(e),c.parentNode.replaceChild(e,c)}}}catch(u){}}();/* ]]&gt; */&lt;/script&gt;\nFormat settings, CABAC : Yes\nFormat settings, ReFrames : 4 frames\nCodec ID : avc1\nCodec ID/Info : Advanced Video Coding\nDuration : 2h 8mn\nBit rate mode : Variable\nBit rate : 1 005 Kbps\nWidth : 720 pixels\nHeight : 320 pixels\nDisplay aspect ratio : 2.25:1\nFrame rate mode : Variable\nFrame rate : 23.976 fps\nMinimum frame rate : 23.968 fps\nMaximum frame rate : 23.981 fps\nColor space : YUV\nChroma subsampling : 4:2:0\nBit depth : 8 bits\nScan type : Progressive\nBits/(Pixel*Frame) : 0.182\nStream size : 926 MiB (86%)\nWriting library : x264 core 130 r2273 b3065e6\nEncoded date : UTC 2014-03-31 12:32:25\nTagged date : UTC 2014-03-31 13:08:15\nColor primaries : BT.601 NTSC\nTransfer characteristics : BT.709\nMatrix coefficients : BT.601\n\nAudio:\nID : 2\nFormat : AAC\nFormat/Info : Advanced Audio Codec\nFormat profile : LC\nCodec ID : 40\nDuration : 2h 8mn\nBit rate mode : Variable\nBit rate : 160 Kbps\nMaximum bit rate : 311 Kbps\nChannel(s) : 2 channels\nChannel positions : Front: L R\nSampling rate : 48.0 KHz\nCompression mode : Lossy\nDelay relative to video : 83ms\nStream size : 147 MiB (14%)\nLanguage : English\nEncoded date : UTC 2014-03-31 12:32:25\nTagged date : UTC 2014-03-31 13:08:15\n\nSubtitles:\nText #1\nID : 3\nFormat : mp4s\nCodec ID : E0\nDuration : 2h 6mn\nBit rate mode : Variable\nBit rate : 2 975 bps\nMaximum bit rate : 4 274 Mbps\nDelay relative to video : 83ms\nStream size : 2.68 MiB (0%)\nLanguage : English\nEncoded date : UTC 2014-03-31 12:32:25\nTagged date : UTC 2014-03-31 13:07:59\n\nText #2\nID : 4\nFormat : Apple text\nCodec ID : text\nDuration : 2h 8mn\nBit rate mode : Variable\nBit rate : 0 bps\nStream size : 423 Bytes (0%)\nEncoded date : UTC 2014-03-31 12:32:25\nTagged date : UTC 2014-03-31 13:08:15\n","torrent":{"xt":"urn:btih:45c7f7a46ef9c9053b9b8ce1b448f38970ab6a64","amp;dn":"Men+of+Honor+-+%5BDrama%5D+-+%282000%29+-+DVDRip+x264+720p+-+%5B%3DFaith%3D%5D+","amp;tr":["udp%3A%2F%2Ftracker.openbittorrent.com%3A80","udp%3A%2F%2Fopen.demonii.com%3A1337","udp%3A%2F%2Ftracker.coppersurfer.tk%3A6969","udp%3A%2F%2Fexodus.desync.com%3A6969"],"infoHash":"45c7f7a46ef9c9053b9b8ce1b448f38970ab6a64","infoHashBuffer":{"type":"Buffer","data":[69,199,247,164,110,249,201,5,59,155,140,225,180,72,243,137,112,171,106,100]},"announce":[],"urlList":[]}}